<svg width="35" height="35" viewBox="0 0 35 35" fill="none" xmlns="http://www.w3.org/2000/svg">
<path d="M21.9268 6.00707L12.8295 7.96273C12.7568 7.97835 12.6909 8.02003 12.6422 8.08121C12.5934 8.14239 12.5646 8.2196 12.5602 8.30071L12.0006 18.6697C11.9874 18.914 12.1919 19.1035 12.4092 19.0485L14.942 18.4072C15.179 18.3473 15.3931 18.5763 15.3444 18.8377L14.5919 22.8803C14.5413 23.1524 14.7741 23.3851 15.0163 23.3044L16.5807 22.7829C16.8232 22.7021 17.0563 22.9354 17.0049 23.2077L15.8091 29.5578C15.7342 29.955 16.2158 30.1716 16.4167 29.831L16.5508 29.6036L23.9639 13.3734C24.088 13.1017 23.8739 12.7917 23.6019 12.8493L20.9947 13.4014C20.7497 13.4532 20.5413 13.2029 20.6104 12.9399L22.3121 6.46834C22.3813 6.2049 22.1721 5.95437 21.9268 6.00707Z" fill="#DBCD68"/>
</svg>
