<svg width="1024" height="1024" viewBox="0 0 1024 1024" fill="none" xmlns="http://www.w3.org/2000/svg">
<path d="M611.507 318.837H442.685L405.838 358.603L372.9 387.094C364.807 389.566 356.934 382.256 356.934 372.271V294.054C356.934 250.755 387.134 216.192 423.322 218.073L613.365 227.957C664.082 230.595 693.894 297.23 667.569 349.117L611.507 459.617L415.517 704.699C413.892 706.73 415.096 710.099 417.447 710.099H573.925C575.888 710.099 577.828 710.616 579.604 711.614L695.303 776.581C708.222 783.835 703.897 807 689.623 807H351.611C324.211 807 302 780.45 302 747.697C302 732.918 306.616 718.67 314.946 707.747L611.507 318.837Z" fill="#0D9488"/>
<path d="M735.333 313.074V377.908V378.725C735.333 380.791 735.804 382.819 736.696 384.591C737.119 385.432 737.632 386.204 738.22 386.89L816.891 478.355C817.181 478.694 817.4 479.11 817.529 479.57C817.82 480.611 817.617 481.758 817 482.572L734.667 590.962C731.629 596.136 730 602.3 730 608.616V669.812C730 672.281 730.751 674.664 732.113 676.521L732.424 676.944C733.849 678.885 735.908 680 738.072 680C740.152 680 742.139 678.97 743.559 677.156L884.455 497.086C888.019 492.533 890 486.535 890 480.308C890 478.298 889.793 476.295 889.384 474.344L889.165 473.299C887.965 467.575 885.513 462.335 882.06 458.112L759.931 308.742C758.209 306.636 756.228 304.856 754.057 303.461L750.995 301.495C749.467 300.514 747.759 300 746.023 300C742.293 300 738.844 302.363 736.965 306.204L736.827 306.487C735.849 308.486 735.333 310.759 735.333 313.074Z" fill="#0D9488"/>
<path d="M287.667 313.074V377.908V378.725C287.667 380.791 287.196 382.819 286.304 384.591C285.881 385.432 285.368 386.204 284.78 386.89L206.109 478.355C205.819 478.694 205.6 479.11 205.471 479.57C205.18 480.611 205.383 481.758 206 482.572L288.333 590.962C291.371 596.136 293 602.3 293 608.616V669.812C293 672.281 292.249 674.664 290.887 676.521L290.576 676.944C289.151 678.885 287.092 680 284.928 680C282.848 680 280.861 678.97 279.441 677.156L138.545 497.086C134.981 492.533 133 486.535 133 480.308C133 478.298 133.207 476.295 133.616 474.344L133.835 473.299C135.035 467.575 137.487 462.335 140.94 458.112L263.069 308.742C264.791 306.636 266.772 304.856 268.943 303.461L272.005 301.495C273.533 300.514 275.241 300 276.977 300C280.707 300 284.156 302.363 286.035 306.204L286.173 306.487C287.151 308.486 287.667 310.759 287.667 313.074Z" fill="#0D9488"/>
<path d="M359 380.619L430.79 311L656.76 702.37C660.863 709.476 653.979 718.275 647.842 713.77L573.838 659.448C568.459 655.499 563.575 650.652 559.33 645.048L359 380.619Z" fill="#0D9488"/>
</svg>
